<mxfile host="app.diagrams.net" modified="2024-05-28T22:49:11.303Z" agent="Mozilla/5.0 (Windows NT 10.0; Win64; x64) AppleWebKit/537.36 (KHTML, like Gecko) Chrome/125.0.0.0 Safari/537.36" etag="JjS3OjkXBxuhw41op6et" version="24.4.6" type="github">
  <diagram name="PÃ¡gina-1" id="zUKHymJND-32jtLWfJ7s">
    <mxGraphModel dx="281" dy="522" grid="1" gridSize="10" guides="1" tooltips="1" connect="1" arrows="1" fold="1" page="1" pageScale="1" pageWidth="827" pageHeight="1169" math="0" shadow="0">
      <root>
        <mxCell id="0" />
        <mxCell id="1" parent="0" />
        <mxCell id="MNlU_o5ncBTQKKe6aSCQ-1" value="DB" style="shape=cylinder3;whiteSpace=wrap;html=1;boundedLbl=1;backgroundOutline=1;size=15;fillColor=#d5e8d4;strokeColor=#82b366;" vertex="1" parent="1">
          <mxGeometry x="40" y="110" width="60" height="80" as="geometry" />
        </mxCell>
        <mxCell id="MNlU_o5ncBTQKKe6aSCQ-2" value="CA" style="shape=cylinder3;whiteSpace=wrap;html=1;boundedLbl=1;backgroundOutline=1;size=15;fillColor=#dae8fc;strokeColor=#6c8ebf;" vertex="1" parent="1">
          <mxGeometry x="220" y="110" width="60" height="80" as="geometry" />
        </mxCell>
        <mxCell id="MNlU_o5ncBTQKKe6aSCQ-3" value="APP" style="shape=cylinder3;whiteSpace=wrap;html=1;boundedLbl=1;backgroundOutline=1;size=15;fillColor=#fff2cc;strokeColor=#d6b656;" vertex="1" parent="1">
          <mxGeometry x="130" y="260" width="60" height="80" as="geometry" />
        </mxCell>
        <mxCell id="MNlU_o5ncBTQKKe6aSCQ-4" value="" style="endArrow=classic;html=1;rounded=0;entryX=0.5;entryY=1;entryDx=0;entryDy=0;entryPerimeter=0;exitX=0;exitY=0.5;exitDx=0;exitDy=0;exitPerimeter=0;" edge="1" parent="1" source="MNlU_o5ncBTQKKe6aSCQ-3" target="MNlU_o5ncBTQKKe6aSCQ-1">
          <mxGeometry width="50" height="50" relative="1" as="geometry">
            <mxPoint x="60" y="320" as="sourcePoint" />
            <mxPoint x="110" y="270" as="targetPoint" />
          </mxGeometry>
        </mxCell>
        <mxCell id="MNlU_o5ncBTQKKe6aSCQ-5" value="" style="endArrow=classic;html=1;rounded=0;exitX=1;exitY=0.5;exitDx=0;exitDy=0;exitPerimeter=0;entryX=0;entryY=0.5;entryDx=0;entryDy=0;entryPerimeter=0;" edge="1" parent="1" source="MNlU_o5ncBTQKKe6aSCQ-1" target="MNlU_o5ncBTQKKe6aSCQ-2">
          <mxGeometry width="50" height="50" relative="1" as="geometry">
            <mxPoint x="160" y="170" as="sourcePoint" />
            <mxPoint x="210" y="120" as="targetPoint" />
          </mxGeometry>
        </mxCell>
        <mxCell id="MNlU_o5ncBTQKKe6aSCQ-6" value="" style="endArrow=classic;html=1;rounded=0;exitX=0.5;exitY=1;exitDx=0;exitDy=0;exitPerimeter=0;entryX=1;entryY=0.5;entryDx=0;entryDy=0;entryPerimeter=0;" edge="1" parent="1" source="MNlU_o5ncBTQKKe6aSCQ-2" target="MNlU_o5ncBTQKKe6aSCQ-3">
          <mxGeometry width="50" height="50" relative="1" as="geometry">
            <mxPoint x="260" y="290" as="sourcePoint" />
            <mxPoint x="310" y="240" as="targetPoint" />
          </mxGeometry>
        </mxCell>
        <mxCell id="MNlU_o5ncBTQKKe6aSCQ-7" value="mensaje" style="text;html=1;align=center;verticalAlign=middle;resizable=0;points=[];autosize=1;strokeColor=none;fillColor=none;" vertex="1" parent="1">
          <mxGeometry x="40" y="240" width="70" height="30" as="geometry" />
        </mxCell>
        <mxCell id="MNlU_o5ncBTQKKe6aSCQ-8" value="mensaje" style="text;html=1;align=center;verticalAlign=middle;resizable=0;points=[];autosize=1;strokeColor=none;fillColor=none;" vertex="1" parent="1">
          <mxGeometry x="120" y="120" width="70" height="30" as="geometry" />
        </mxCell>
        <mxCell id="MNlU_o5ncBTQKKe6aSCQ-9" value="mensaje&lt;br&gt;privado" style="text;html=1;align=center;verticalAlign=middle;resizable=0;points=[];autosize=1;strokeColor=none;fillColor=none;" vertex="1" parent="1">
          <mxGeometry x="210" y="230" width="70" height="40" as="geometry" />
        </mxCell>
      </root>
    </mxGraphModel>
  </diagram>
</mxfile>
